<svg xmlns="http://www.w3.org/2000/svg" version="1.1" xmlns:xlink="http://www.w3.org/1999/xlink" xmlns:svgjs="http://svgjs.dev/svgjs" width="100%" height="100%" viewBox="0 0 1000 600"><rect width="1000" height="600" x="0" y="0" fill="#ec4d37"/><g><circle r="166.66666666666666" cx="330.40285746256507" cy="352.6250967420141" fill="#1d1b1b" transform="matrix(0.7634230877332671,0,0,0.7634230877332674,0,30.79785574517885)"/><path d="M209.53977452857148 277.6251061695016L323.76596154652134 277.6251061695016L323.76596154652134 295.631058005317L277.0397724849837 295.631058005317L277.0397724849837 426.1370064351529L256.2659635901091 426.1370064351529L256.2659635901091 295.631058005317L209.53977452857148 295.631058005317L209.53977452857148 277.6251061695016ZM437.3373866795324 295.42272467829105L366.41476977912225 295.42272467829105L366.41476977912225 333.1310568699905L384.83738826898957 333.1310568699905Q400.4623877959368 333.1310568699905 412.78381599432953 335.7203425058846Q425.10524419272224 338.2798662379179 433.6766725046476 343.9643898753406Q442.248100816573 349.64891351276333 446.7719102034225 358.5179608632972Q451.26595768641107 367.41677011769195 451.26595768641107 380.27391258558004L451.26595768641107 380.27391258558004Q451.26595768641107 403.84534044337477 434.1231010625604 415.75010198771554Q416.98024443870963 427.62510162819547 385.7004834809543 427.62510162819547L385.7004834809543 427.62510162819547Q381.1766740941048 427.62510162819547 375.9385790145948 427.4167683011695Q370.7004839350849 427.20843497414353 365.43262695171404 426.7917683200916Q360.19453187220415 426.3453397621788 355.0457225042768 425.72033978110096Q349.8969131363493 425.0655778961622 345.6111989803867 423.9941493571715L345.6111989803867 423.9941493571715L345.6111989803867 277.6251061695016L437.3373866795324 277.6251061695016L437.3373866795324 295.42272467829105ZM387.39691200102277 409.41081646535406L387.39691200102277 409.41081646535406Q395.76000698592225 409.41081646535406 403.3790543743004 408.1310545993374Q410.96833985881756 406.85129273332075 416.7719111116837 403.51795950090536Q422.5457204606889 400.2143881723508 425.96833940468696 394.64891215037153Q429.3909583486849 389.05367422453133 429.3909583486849 380.48224591260595L429.3909583486849 380.48224591260595Q429.3909583486849 371.4941509466287 426.29572034715636 365.72034159762336Q423.20048234562773 359.91677034475725 417.39691109276157 356.4941514007593Q411.62310174375625 353.0715324567613 403.1409591434135 351.67272297530127Q394.6885784469315 350.27391349384123 383.97429305702485 350.27391349384123L383.97429305702485 350.27391349384123L366.41476977912225 350.27391349384123L366.41476977912225 408.7858164842762Q368.76596018412954 408.9941498113021 371.98024580110155 409.2024831383281L371.98024580110155 409.2024831383281Q374.74810286016077 409.41081646535406 378.61715036207147 409.41081646535406Q382.4861978639823 409.41081646535406 387.39691200102277 409.41081646535406Z " fill="#ec4d37" transform="matrix(0.7634230877332671,0,0,0.7634230877332674,0,30.79785574517885)"/><path d="M580.4028726725993 277.6251061372937L693.8189435496115 277.6251061372937L693.8189435496115 295.50335597590555L647.4241464477592 295.50335597590555L647.4241464477592 425.0837287731172L626.7976697744517 425.0837287731172L626.7976697744517 295.50335597590555L580.4028726725993 295.50335597590555L580.4028726725993 277.6251061372937ZM696.3603146010505 369.9714379483054L696.3603146010505 369.9714379483054Q696.3603146010505 355.2846773370821 700.6156335709019 344.3508716506583Q704.8709525407534 333.387515138055 711.90404917148 326.1475627240717Q718.9075949760271 318.90761031008833 728.0683510916795 315.30240951618646Q737.2291072073318 311.667657896105 746.8035748894976 311.667657896105L746.8035748894976 311.667657896105Q769.1439994812175 311.667657896105 781.0529824315655 325.61564785284025Q792.9619653819136 339.5636378095754 792.9619653819136 368.0506342466363L792.9619653819136 368.0506342466363Q792.9619653819136 369.3508705985354 792.9619653819136 371.360326778743Q792.9619653819136 373.3697829589506 792.755109598657 375.083730877363L792.755109598657 375.083730877363L717.0163421005376 375.083730877363Q718.2870276262571 392.3118625400253 727.0045213492166 401.265762872421Q735.7220150721762 410.1901123786372 754.2503830867375 410.1901123786372L754.2503830867375 410.1901123786372Q764.6522739019299 410.1901123786372 771.8035738373746 408.3875119816862Q778.9253229466399 406.58491158473527 782.5305237405418 404.8709636663229L782.5305237405418 404.8709636663229L785.308301401417 421.47852797921524Q781.6735497813355 423.36978085470474 772.6309969704013 425.49744033963043Q763.588444159467 427.6250998245562 752.1227236018118 427.6250998245562L752.1227236018118 427.6250998245562Q737.6428187738452 427.6250998245562 727.1227246539347 423.2811283761662Q716.5730797078447 418.9076061015967 709.7763896865544 411.2539421211Q702.9501488390844 403.6002781406034 699.6700071331571 393.05063319451335Q696.3603146010505 382.530539074603 696.3603146010505 369.9714379483054ZM717.430053667051 359.12628474042015L772.335488708606 359.12628474042015Q772.5423444918628 345.7102096549164 765.6274511658542 337.110919236675Q758.7125578398455 328.48207799225406 746.5671682800613 328.48207799225406L746.5671682800613 328.48207799225406Q739.7704782587709 328.48207799225406 734.5695328511747 331.1416523484112Q729.3390366173991 333.8012267045683 725.7338358234971 338.05654567441974Q722.0990842034157 342.31186464427117 720.0896280232081 347.8378691398421Q718.0801718430005 353.39342446159253 717.430053667051 359.12628474042015L717.430053667051 359.12628474042015ZM869.5577068392391 427.6250998245562L869.5577068392391 427.6250998245562Q856.1416317537354 427.6250998245562 846.0352492003383 423.36978085470474Q835.9288666469412 419.1144618848533 829.0139733209326 411.4607979043567Q822.099079994924 403.8071339238601 818.7007349842788 393.2870398039496Q815.3023899736336 382.7373948578596 815.3023899736336 369.9714379483054L815.3023899736336 369.9714379483054Q815.3023899736336 357.20548103875115 819.0257940722536 346.56718361412254Q822.7491981708735 335.928886189494 829.5458881921639 328.1570189042793Q836.3721290396339 320.4147024452441 846.2716558097744 316.0411801706746Q856.1416317537354 311.667657896105 868.2870213135196 311.667657896105L868.2870213135196 311.667657896105Q875.7338295107596 311.667657896105 883.1806377079996 312.9678942480041Q890.6274459052396 314.2385797737236 897.4241359265301 316.98680660841933L897.4241359265301 316.98680660841933L892.961961173422 333.8012267045683Q888.4997864203139 331.6735672196426 882.6487228367681 330.40288169392306Q876.7976592532225 329.13219616820356 870.2078250151886 329.13219616820356L870.2078250151886 329.13219616820356Q853.6002607022963 329.13219616820356 844.7645636746187 339.5636378095754Q835.9288666469412 349.9655286247678 835.9288666469412 369.9714379483054L835.9288666469412 369.9714379483054Q835.9288666469412 378.92533828070106 837.9678736533283 386.37214647794104Q839.9773298335359 393.81895467518103 844.3508521081054 399.1381033874953Q848.6948235564954 404.4572520998096 855.5210644039654 407.32368223922333Q862.3177544252559 410.1901123786372 872.0990778906781 410.1901123786372L872.0990778906781 410.1901123786372Q879.989148480611 410.1901123786372 886.3721269353881 408.71257106966095Q892.7551053901652 407.20547893450527 896.3603061840671 405.52108184227245L896.3603061840671 405.52108184227245L899.1380838449423 422.09909532898524Q897.4241359265301 423.16292507144806 894.2326466991414 424.13810233537237Q891.0411574717529 425.0837287731172 886.9926942851581 425.82249942760524Q882.9737819247429 426.5612700820933 878.3934038669167 427.09318495332474Q873.8130258090906 427.6250998245562 869.5577068392391 427.6250998245562ZM906.7917478254391 314.44543555698027L998.4879614605012 314.44543555698027L998.4879614605012 331.0529998698726L962.5246060000208 331.0529998698726L962.5246060000208 425.0837287731172L942.7551032859194 425.0837287731172L942.7551032859194 331.0529998698726L906.7917478254391 331.0529998698726L906.7917478254391 314.44543555698027ZM1059.5695191735767 370.41470034099825L1059.5695191735767 370.41470034099825Q1053.8071080685695 370.41470034099825 1048.3993068777168 370.71020860279344Q1042.9619548606843 371.03526769076825 1038.7066358908332 372.09909743323107L1038.7066358908332 372.09909743323107L1038.7066358908332 410.1901123786372Q1039.9773214165525 410.3969681618938 1042.4300399894532 410.6038239451505Q1044.8827585623535 410.8402305545867 1047.7491887017673 410.92888303312526Q1050.615618841181 411.0470863378433 1053.6002522853132 411.13573881638195Q1056.584885729445 411.2539421211 1058.9194009976272 411.2539421211L1058.9194009976272 411.2539421211Q1071.892213690438 411.2539421211 1078.925310321165 406.3485049752991Q1085.9288561257122 401.47261865567765 1085.9288561257122 390.6274654477925L1085.9288561257122 390.6274654477925Q1085.9288561257122 385.3083167354782 1083.7125441622475 381.4667093321401Q1081.466681372604 377.625101928802 1077.743277273984 375.2019341820811Q1074.019873175364 372.7492156091806 1069.3508426389994 371.56718256199963Q1064.6522612764547 370.41470034099825 1059.5695191735767 370.41470034099825ZM1018.9075823505522 422.74921350493474L1018.9075823505522 314.44543555698027L1038.7066358908332 314.44543555698027L1038.7066358908332 356.7917694722378Q1042.3118366847348 355.9347955130316 1049.2267300107437 355.0778215538254Q1056.1416233367522 354.2208475946192 1062.5246017915292 354.2208475946192L1062.5246017915292 354.2208475946192Q1071.2716463406682 354.2208475946192 1079.1321661044217 356.25985460100634Q1086.9926858681747 358.26931078121396 1092.9619527564387 362.6428330557835Q1098.9312196447027 366.9868045041735 1102.4182171338862 373.901697830182Q1105.9347654492494 380.81659115619055 1105.9347654492494 390.3910588383563L1105.9347654492494 390.3910588383563Q1105.9347654492494 400.40878891321483 1102.5364204386042 407.41233471776195Q1099.138075427959 414.44543134848857 1092.9619527564387 418.9076061015967Q1086.785830084918 423.36978085470474 1078.0683363619587 425.4087878610919Q1069.3508426389994 427.41824404129954 1058.9194009976272 427.41824404129954L1058.9194009976272 427.41824404129954Q1048.9312217489482 427.41824404129954 1038.7066358908332 426.26576182029805Q1028.4820500327178 425.0837287731172 1018.9075823505522 422.74921350493474L1018.9075823505522 422.74921350493474ZM1146.1534398795811 314.44543555698027L1146.1534398795811 425.0837287731172L1126.3543863393006 425.0837287731172L1126.3543863393006 314.44543555698027L1146.1534398795811 314.44543555698027Z " fill="#1d1b1b" transform="matrix(0.7634230877332671,0,0,0.7634230877332674,0,30.79785574517885)"/></g></svg>